<?xml version="1.0" encoding="UTF-8" standalone="no"?>
<svg
   xmlns:dc="http://purl.org/dc/elements/1.1/"
   xmlns:cc="http://creativecommons.org/ns#"
   xmlns:rdf="http://www.w3.org/1999/02/22-rdf-syntax-ns#"
   xmlns:svg="http://www.w3.org/2000/svg"
   xmlns="http://www.w3.org/2000/svg"
   xmlns:sodipodi="http://sodipodi.sourceforge.net/DTD/sodipodi-0.dtd"
   xmlns:inkscape="http://www.inkscape.org/namespaces/inkscape"
   width="20"
   height="20"
   version="1.1"
   id="svg4"
   sodipodi:docname="icon-pinterest-negative.svg"
   inkscape:version="1.0.2-2 (e86c870879, 2021-01-15)">
  <metadata
     id="metadata10">
    <rdf:RDF>
      <cc:Work
         rdf:about="">
        <dc:format>image/svg+xml</dc:format>
        <dc:type
           rdf:resource="http://purl.org/dc/dcmitype/StillImage" />
      </cc:Work>
    </rdf:RDF>
  </metadata>
  <defs
     id="defs8" />
  <sodipodi:namedview
     pagecolor="#ffffff"
     bordercolor="#666666"
     borderopacity="1"
     objecttolerance="10"
     gridtolerance="10"
     guidetolerance="10"
     inkscape:pageopacity="0"
     inkscape:pageshadow="2"
     inkscape:window-width="1920"
     inkscape:window-height="1017"
     id="namedview6"
     showgrid="false"
     inkscape:zoom="30.052038"
     inkscape:cx="13.898481"
     inkscape:cy="11.958986"
     inkscape:window-x="-8"
     inkscape:window-y="-8"
     inkscape:window-maximized="1"
     inkscape:current-layer="svg4" />
  <path
     fill="#FFF"
     d="M10 0C4.478 0 0 4.477 0 10c0 4.237 2.636 7.855 6.356 9.312-.088-.791-.167-2.005.035-2.868.182-.78 1.172-4.97 1.172-4.97s-.299-.6-.299-1.486c0-1.39.806-2.428 1.81-2.428.852 0 1.264.64 1.264 1.408 0 .858-.545 2.14-.828 3.33-.236.995.5 1.807 1.48 1.807 1.778 0 3.144-1.874 3.144-4.58 0-2.393-1.72-4.068-4.177-4.068-2.845 0-4.515 2.135-4.515 4.34 0 .859.331 1.781.745 2.281a.3.3 0 01.069.288l-.278 1.133c-.044.183-.145.223-.335.134-1.249-.581-2.03-2.407-2.03-3.874 0-3.154 2.292-6.052 6.608-6.052 3.469 0 6.165 2.473 6.165 5.776 0 3.447-2.173 6.22-5.19 6.22-1.013 0-1.965-.525-2.291-1.148l-.623 2.378c-.226.869-.835 1.958-1.244 2.621.937.29 1.931.446 2.962.446 5.522 0 10-4.477 10-10S15.522 0 10 0z"
     id="path2"
     style="fill:#f3613c;fill-opacity:1" />
</svg>
