<?xml version="1.0" encoding="UTF-8" standalone="no"?>
<svg
   xmlns:dc="http://purl.org/dc/elements/1.1/"
   xmlns:cc="http://creativecommons.org/ns#"
   xmlns:rdf="http://www.w3.org/1999/02/22-rdf-syntax-ns#"
   xmlns:svg="http://www.w3.org/2000/svg"
   xmlns="http://www.w3.org/2000/svg"
   xmlns:sodipodi="http://sodipodi.sourceforge.net/DTD/sodipodi-0.dtd"
   xmlns:inkscape="http://www.inkscape.org/namespaces/inkscape"
   width="21"
   height="18"
   version="1.1"
   id="svg4"
   sodipodi:docname="icon-twitter-negative.svg"
   inkscape:version="1.0.2-2 (e86c870879, 2021-01-15)">
  <metadata
     id="metadata10">
    <rdf:RDF>
      <cc:Work
         rdf:about="">
        <dc:format>image/svg+xml</dc:format>
        <dc:type
           rdf:resource="http://purl.org/dc/dcmitype/StillImage" />
      </cc:Work>
    </rdf:RDF>
  </metadata>
  <defs
     id="defs8" />
  <sodipodi:namedview
     pagecolor="#ffffff"
     bordercolor="#666666"
     borderopacity="1"
     objecttolerance="10"
     gridtolerance="10"
     guidetolerance="10"
     inkscape:pageopacity="0"
     inkscape:pageshadow="2"
     inkscape:window-width="1920"
     inkscape:window-height="1017"
     id="namedview6"
     showgrid="false"
     inkscape:zoom="8.3477884"
     inkscape:cx="4.8728202"
     inkscape:cy="6.8033676"
     inkscape:window-x="1912"
     inkscape:window-y="-8"
     inkscape:window-maximized="1"
     inkscape:current-layer="svg4" />
  <path
     fill="#FFF"
     d="M20.667 2.797a8.192 8.192 0 01-2.357.646 4.11 4.11 0 001.804-2.27 8.22 8.22 0 01-2.606.996A4.096 4.096 0 0014.513.873c-2.649 0-4.595 2.472-3.997 5.038a11.648 11.648 0 01-8.457-4.287 4.109 4.109 0 001.27 5.478A4.086 4.086 0 011.47 6.59c-.045 1.901 1.317 3.68 3.29 4.075a4.113 4.113 0 01-1.853.07 4.106 4.106 0 003.834 2.85 8.25 8.25 0 01-6.075 1.7 11.616 11.616 0 006.29 1.843c7.618 0 11.922-6.434 11.662-12.205a8.354 8.354 0 002.048-2.124z"
     id="path2"
     style="fill:#f3613c;fill-opacity:1" />
</svg>
