<?xml version="1.0" encoding="UTF-8" standalone="no"?>
<svg
   xmlns:dc="http://purl.org/dc/elements/1.1/"
   xmlns:cc="http://creativecommons.org/ns#"
   xmlns:rdf="http://www.w3.org/1999/02/22-rdf-syntax-ns#"
   xmlns:svg="http://www.w3.org/2000/svg"
   xmlns="http://www.w3.org/2000/svg"
   xmlns:sodipodi="http://sodipodi.sourceforge.net/DTD/sodipodi-0.dtd"
   xmlns:inkscape="http://www.inkscape.org/namespaces/inkscape"
   width="21"
   height="20"
   version="1.1"
   id="svg4"
   sodipodi:docname="icon-twitter.svg"
   inkscape:version="1.0.2-2 (e86c870879, 2021-01-15)">
  <metadata
     id="metadata10">
    <rdf:RDF>
      <cc:Work
         rdf:about="">
        <dc:format>image/svg+xml</dc:format>
        <dc:type
           rdf:resource="http://purl.org/dc/dcmitype/StillImage" />
        <dc:title></dc:title>
      </cc:Work>
    </rdf:RDF>
  </metadata>
  <defs
     id="defs8" />
  <sodipodi:namedview
     pagecolor="#ffffff"
     bordercolor="#666666"
     borderopacity="1"
     objecttolerance="10"
     gridtolerance="10"
     guidetolerance="10"
     inkscape:pageopacity="0"
     inkscape:pageshadow="2"
     inkscape:window-width="1920"
     inkscape:window-height="1017"
     id="namedview6"
     showgrid="false"
     inkscape:zoom="11.805556"
     inkscape:cx="-2.1117862"
     inkscape:cy="6.764549"
     inkscape:window-x="1912"
     inkscape:window-y="-8"
     inkscape:window-maximized="1"
     inkscape:current-layer="layer1" />
  <g
     inkscape:groupmode="layer"
     id="layer1"
     inkscape:label="Layer 1">
    <path
       fill="#ffffff"
       d="m 20.5005,3.7964989 a 8.192,8.192 0 0 1 -2.357,0.646 4.11,4.11 0 0 0 1.804,-2.27 8.22,8.22 0 0 1 -2.606,0.996 4.096,4.096 0 0 0 -2.995,-1.296 c -2.649,0 -4.5950003,2.472 -3.997,5.038 a 11.648,11.648 0 0 1 -8.4570003,-4.287 4.109,4.109 0 0 0 1.27,5.478 4.086,4.086 0 0 1 -1.859,-0.512 c -0.045,1.901 1.317,3.6800001 3.29,4.0750001 a 4.113,4.113 0 0 1 -1.853,0.07 4.106,4.106 0 0 0 3.834,2.85 8.25,8.25 0 0 1 -6.07499993,1.7 11.616,11.616 0 0 0 6.28999993,1.843 c 7.6180003,0 11.9220003,-6.434 11.6620003,-12.2050001 a 8.354,8.354 0 0 0 2.048,-2.124 z"
       id="path2"
       style="fill:#ffffff" />
  </g>
</svg>
