<?xml version="1.0" encoding="UTF-8" standalone="no"?>
<svg
   xmlns:dc="http://purl.org/dc/elements/1.1/"
   xmlns:cc="http://creativecommons.org/ns#"
   xmlns:rdf="http://www.w3.org/1999/02/22-rdf-syntax-ns#"
   xmlns:svg="http://www.w3.org/2000/svg"
   xmlns="http://www.w3.org/2000/svg"
   xmlns:xlink="http://www.w3.org/1999/xlink"
   xmlns:sodipodi="http://sodipodi.sourceforge.net/DTD/sodipodi-0.dtd"
   xmlns:inkscape="http://www.inkscape.org/namespaces/inkscape"
   width="530"
   height="505"
   version="1.1"
   id="svg104"
   sodipodi:docname="illustration-intro.svg"
   inkscape:version="1.0.2-2 (e86c870879, 2021-01-15)">
  <metadata
     id="metadata108">
    <rdf:RDF>
      <cc:Work
         rdf:about="">
        <dc:format>image/svg+xml</dc:format>
        <dc:type
           rdf:resource="http://purl.org/dc/dcmitype/StillImage" />
        <dc:title />
      </cc:Work>
    </rdf:RDF>
  </metadata>
  <sodipodi:namedview
     pagecolor="#ffffff"
     bordercolor="#666666"
     borderopacity="1"
     objecttolerance="10"
     gridtolerance="10"
     guidetolerance="10"
     inkscape:pageopacity="0"
     inkscape:pageshadow="2"
     inkscape:window-width="1920"
     inkscape:window-height="1017"
     id="namedview106"
     showgrid="false"
     inkscape:zoom="2"
     inkscape:cx="364.40335"
     inkscape:cy="151.69886"
     inkscape:window-x="1912"
     inkscape:window-y="-8"
     inkscape:window-maximized="1"
     inkscape:current-layer="layer1"
     inkscape:document-rotation="0" />
  <defs
     id="defs34">
    <inkscape:path-effect
       effect="fillet_chamfer"
       id="path-effect972"
       is_visible="true"
       lpeversion="1"
       satellites_param="F,0,0,1,0,6,0,1 @ F,0,0,1,0,6,0,1 @ F,0,0,1,0,6,0,1 @ F,0,0,1,0,6,0,1"
       unit="px"
       method="auto"
       mode="F"
       radius="6"
       chamfer_steps="1"
       flexible="false"
       use_knot_distance="true"
       apply_no_radius="true"
       apply_with_radius="true"
       only_selected="false"
       hide_knots="false" />
    <inkscape:path-effect
       effect="fillet_chamfer"
       id="path-effect951"
       is_visible="true"
       lpeversion="1"
       satellites_param="F,0,0,1,0,6,0,1 @ F,0,0,1,0,6,0,1 @ F,0,0,1,0,6,0,1 @ F,0,0,1,0,6,0,1"
       unit="px"
       method="auto"
       mode="F"
       radius="6"
       chamfer_steps="1"
       flexible="false"
       use_knot_distance="true"
       apply_no_radius="true"
       apply_with_radius="true"
       only_selected="false"
       hide_knots="false" />
    <inkscape:perspective
       sodipodi:type="inkscape:persp3d"
       inkscape:vp_x="0 : 252.5 : 1"
       inkscape:vp_y="0 : 1000 : 0"
       inkscape:vp_z="530 : 252.5 : 1"
       inkscape:persp3d-origin="265 : 168.33333 : 1"
       id="perspective933" />
    <filter
       id="c"
       width="1.2690001"
       height="1.298"
       x="-0.13500001"
       y="-0.10600001"
       filterUnits="objectBoundingBox">
      <feOffset
         dy="10"
         in="SourceAlpha"
         result="shadowOffsetOuter1"
         id="feOffset2" />
      <feGaussianBlur
         in="shadowOffsetOuter1"
         result="shadowBlurOuter1"
         stdDeviation="10"
         id="feGaussianBlur4" />
      <feColorMatrix
         in="shadowBlurOuter1"
         values="0 0 0 0 0.311765745 0 0 0 0 0.336514196 0 0 0 0 0.386011096 0 0 0 0.03 0"
         id="feColorMatrix6" />
    </filter>
    <filter
       id="e"
       width="1.2690001"
       height="1.298"
       x="-0.13500001"
       y="-0.10600001"
       filterUnits="objectBoundingBox">
      <feOffset
         dy="10"
         in="SourceAlpha"
         result="shadowOffsetOuter1"
         id="feOffset9" />
      <feGaussianBlur
         in="shadowOffsetOuter1"
         result="shadowBlurOuter1"
         stdDeviation="10"
         id="feGaussianBlur11" />
      <feColorMatrix
         in="shadowBlurOuter1"
         values="0 0 0 0 0.311765745 0 0 0 0 0.336514196 0 0 0 0 0.386011096 0 0 0 0.03 0"
         id="feColorMatrix13" />
    </filter>
    <filter
       id="i"
       width="1.2690001"
       height="1.298"
       x="-0.13500001"
       y="-0.10600001"
       filterUnits="objectBoundingBox">
      <feOffset
         dy="10"
         in="SourceAlpha"
         result="shadowOffsetOuter1"
         id="feOffset16" />
      <feGaussianBlur
         in="shadowOffsetOuter1"
         result="shadowBlurOuter1"
         stdDeviation="10"
         id="feGaussianBlur18" />
      <feColorMatrix
         in="shadowBlurOuter1"
         values="0 0 0 0 0.311765745 0 0 0 0 0.336514196 0 0 0 0 0.386011096 0 0 0 0.03 0"
         id="feColorMatrix20" />
    </filter>
    <rect
       id="d"
       width="260"
       height="235"
       x="0"
       y="0"
       rx="4" />
    <rect
       id="f"
       width="260"
       height="235"
       x="0"
       y="0"
       rx="4" />
    <rect
       id="j"
       width="260"
       height="235"
       x="0"
       y="0"
       rx="4" />
    <ellipse
       id="a"
       cx="81.039001"
       cy="81.033997"
       rx="81.039001"
       ry="81.033997" />
    <ellipse
       id="b"
       cx="81.039001"
       cy="81.033997"
       rx="81.039001"
       ry="81.033997" />
    <mask
       id="g"
       width="162.078"
       height="162.069"
       x="0"
       y="0"
       fill="#ffffff"
       maskContentUnits="userSpaceOnUse"
       maskUnits="objectBoundingBox">
      <use
         xlink:href="#a"
         id="use28"
         x="0"
         y="0"
         width="100%"
         height="100%" />
    </mask>
    <mask
       id="h"
       width="162.078"
       height="162.069"
       x="0"
       y="0"
       fill="#ffffff"
       maskContentUnits="userSpaceOnUse"
       maskUnits="objectBoundingBox">
      <use
         xlink:href="#b"
         id="use31"
         x="0"
         y="0"
         width="100%"
         height="100%" />
    </mask>
    <filter
       id="c-3"
       width="1.2690001"
       height="1.298"
       x="-0.13500001"
       y="-0.10600001"
       filterUnits="objectBoundingBox">
      <feOffset
         dy="10"
         in="SourceAlpha"
         result="shadowOffsetOuter1"
         id="feOffset2-8" />
      <feGaussianBlur
         in="shadowOffsetOuter1"
         result="shadowBlurOuter1"
         stdDeviation="10"
         id="feGaussianBlur4-2" />
      <feColorMatrix
         in="shadowBlurOuter1"
         values="0 0 0 0 0.311765745 0 0 0 0 0.336514196 0 0 0 0 0.386011096 0 0 0 0.03 0"
         id="feColorMatrix6-5" />
    </filter>
    <filter
       id="e-1"
       width="1.2690001"
       height="1.298"
       x="-0.13500001"
       y="-0.10600001"
       filterUnits="objectBoundingBox">
      <feOffset
         dy="10"
         in="SourceAlpha"
         result="shadowOffsetOuter1"
         id="feOffset9-7" />
      <feGaussianBlur
         in="shadowOffsetOuter1"
         result="shadowBlurOuter1"
         stdDeviation="10"
         id="feGaussianBlur11-3" />
      <feColorMatrix
         in="shadowBlurOuter1"
         values="0 0 0 0 0.311765745 0 0 0 0 0.336514196 0 0 0 0 0.386011096 0 0 0 0.03 0"
         id="feColorMatrix13-5" />
    </filter>
    <mask
       id="g-3"
       width="162.078"
       height="162.069"
       x="0"
       y="0"
       fill="#ffffff"
       maskContentUnits="userSpaceOnUse"
       maskUnits="objectBoundingBox">
      <use
         xlink:href="#a"
         id="use28-0"
         x="0"
         y="0"
         width="100%"
         height="100%" />
    </mask>
    <mask
       id="h-1"
       width="162.078"
       height="162.069"
       x="0"
       y="0"
       fill="#ffffff"
       maskContentUnits="userSpaceOnUse"
       maskUnits="objectBoundingBox">
      <use
         xlink:href="#b"
         id="use31-8"
         x="0"
         y="0"
         width="100%"
         height="100%" />
    </mask>
    <filter
       id="i-6"
       width="1.2690001"
       height="1.298"
       x="-0.13500001"
       y="-0.10600001"
       filterUnits="objectBoundingBox">
      <feOffset
         dy="10"
         in="SourceAlpha"
         result="shadowOffsetOuter1"
         id="feOffset16-3" />
      <feGaussianBlur
         in="shadowOffsetOuter1"
         result="shadowBlurOuter1"
         stdDeviation="10"
         id="feGaussianBlur18-9" />
      <feColorMatrix
         in="shadowBlurOuter1"
         values="0 0 0 0 0.311765745 0 0 0 0 0.336514196 0 0 0 0 0.386011096 0 0 0 0.03 0"
         id="feColorMatrix20-2" />
    </filter>
  </defs>
  <g
     inkscape:groupmode="layer"
     id="layer1"
     inkscape:label="Layer 1"
     style="display:inline">
    <use
       fill="#000000"
       filter="url(#c)"
       xlink:href="#d"
       id="use36"
       style="fill-rule:evenodd;filter:url(#c-3)"
       x="0"
       y="0"
       width="100%"
       height="100%"
       transform="translate(24.129994,30.277359)" />
    <use
       fill="#ffffff"
       xlink:href="#d"
       id="use38"
       style="opacity:0.3;fill-rule:evenodd"
       x="0"
       y="0"
       width="100%"
       height="100%"
       transform="matrix(0.96646329,0,0,0.96646329,6.2373227,17.732647)" />
    <path
       fill="#fafafa"
       stroke="#e5e9ea"
       d="m 27.90176,33.396118 h 210.56296 a 6,6 45 0 1 6,6 l 0,183.791932 a 6,6 135 0 1 -6,6 H 27.90176 a 6,6 45 0 1 -6,-6 V 39.396118 a 6,6 135 0 1 6,-6 z"
       id="path40"
       style="opacity:0.55;fill-rule:evenodd;stroke-width:0.966463;font-variation-settings:normal;vector-effect:none;fill:#fafafa;fill-opacity:1;stroke:#e5e9ea;stroke-linecap:butt;stroke-linejoin:miter;stroke-miterlimit:4;stroke-dasharray:none;stroke-dashoffset:0;stroke-opacity:1;stop-color:#000000;stop-opacity:1"
       inkscape:path-effect="#path-effect972"
       inkscape:original-d="M 21.90176,33.396118 H 244.46472 V 229.18805 H 21.90176 Z" />
    <path
       fill="#e5e9ea"
       d="m 21.90176,131.29208 h 222.56296 v 0.96647 H 21.90176 Z m 0,18.35604 h 222.56296 v 0.96647 H 21.90176 Z m 0,18.35507 h 222.56296 v 0.96647 H 21.90176 Z m 0,18.35507 h 222.56296 v 0.96647 H 21.90176 Z m 0,-128.488392 h 222.56296 v 0.966463 H 21.90176 Z m 0,-18.355071 H 244.46472 V 40.48126 H 21.90176 Z m 0,36.711108 h 222.56296 v 0.966463 H 21.90176 Z m 0,18.355072 H 244.46472 V 95.54744 H 21.90176 Z m 0,18.356033 h 222.56296 v 0.96647 H 21.90176 Z m 0,91.77729 h 222.56296 v 0.96646 H 21.90176 Z m 0,18.35507 h 222.56296 v 0.96647 H 21.90176 Z"
       id="path42"
       style="fill:#99a6aa;fill-opacity:1;fill-rule:evenodd;stroke-width:0.966;stroke-miterlimit:3;stroke-dasharray:none" />
    <path
       fill="#242d52"
       d="m 27.775924,131.29208 h 30.023182 v 44.11615 a 4.8323164,4.8323164 0 0 1 -4.832317,4.83232 H 32.60824 a 4.8323164,4.8323164 0 0 1 -4.832316,-4.83232 z"
       id="path44"
       style="fill-rule:evenodd;stroke-width:0.966463" />
    <path
       fill="#f3603c"
       d="m 27.775924,131.29208 h 30.023182 v 31.8788 a 4.8323164,4.8323164 0 0 1 -4.832317,4.83231 H 32.60824 a 4.8323164,4.8323164 0 0 1 -4.832316,-4.83231 z m 45.686652,-0.25707 H 103.48576 V 97.618571 A 4.8323164,4.8323164 0 0 0 98.65344,92.786255 H 78.294893 a 4.8323164,4.8323164 0 0 0 -4.832317,4.832316 z"
       id="path46"
       style="fill-rule:evenodd;stroke-width:0.966463" />
    <path
       fill="#242d52"
       d="m 73.462576,131.03501 h 30.023184 v 50.24642 a 4.8323164,4.8323164 0 0 1 -4.83232,4.83232 H 78.294893 a 4.8323164,4.8323164 0 0 1 -4.832317,-4.83232 z m 89.417184,0.25707 h 30.02318 V 62.376486 a 4.8323164,4.8323164 0 0 0 -4.83232,-4.832316 h -20.35855 a 4.8323164,4.8323164 0 0 0 -4.83231,4.832316 z"
       id="path48"
       style="fill-rule:evenodd;stroke-width:0.966463" />
    <path
       fill="#f3603c"
       d="m 162.87976,131.29208 h 30.02318 V 80.813706 a 4.8323164,4.8323164 0 0 0 -4.83232,-4.832316 h -20.35855 a 4.8323164,4.8323164 0 0 0 -4.83231,4.832316 z"
       id="path50"
       style="fill-rule:evenodd;stroke-width:0.966463" />
    <g
       id="g56"
       style="fill:none;fill-rule:evenodd"
       transform="matrix(0.96646329,0,0,0.96646329,6.2373227,17.732647)">
      <path
         fill="#242d52"
         d="m 209.351,117.5 h 31.065 v 58.477 a 5,5 0 0 1 -5,5 H 214.35 a 5,5 0 0 1 -5,-5 V 117.5 Z"
         id="path52" />
      <path
         fill="#f3603c"
         d="m 209.351,117.5 h 31.065 v 45.782 a 5,5 0 0 1 -5,5 H 214.35 a 5,5 0 0 1 -5,-5 V 117.5 Z"
         id="path54" />
    </g>
    <g
       id="g62"
       style="fill:none;fill-rule:evenodd"
       transform="matrix(0.96646329,0,0,0.96646329,6.2373227,17.732647)">
      <path
         fill="#f3603c"
         d="m 115.481,117.5 h 31.065 v 90.216 a 5,5 0 0 1 -5,5 H 120.48 a 5,5 0 0 1 -5,-5 V 117.5 Z"
         id="path58" />
      <path
         fill="#242d52"
         d="m 115.481,117.5 h 31.065 v 33.086 a 5,5 0 0 1 -5,5 H 120.48 a 5,5 0 0 1 -5,-5 V 117.5 Z"
         id="path60" />
    </g>
    <path
       fill="#fafafa"
       stroke="#e5e9ea"
       d="m 294.04096,33.396118 h 210.56296 a 6,6 45 0 1 6,6 V 223.18805 a 6,6 135 0 1 -6,6 H 294.04096 a 6,6 45 0 1 -6,-6 V 39.396118 a 6,6 135 0 1 6,-6 z"
       id="path949"
       style="opacity:0.55;fill-rule:evenodd;stroke-width:0.966463;fill:#ffffff;fill-opacity:1"
       inkscape:path-effect="#path-effect951"
       inkscape:original-d="M 288.04096,33.396118 H 510.60392 V 229.18805 H 288.04096 Z" />
    <use
       fill="#ffffff"
       xlink:href="#d"
       id="use971"
       style="opacity:0.3;fill-rule:evenodd"
       x="0"
       y="0"
       width="100%"
       height="100%"
       transform="matrix(0.96646329,0,0,0.96646329,273.68221,17.732647)" />
    <use
       stroke="#f3603c"
       stroke-dasharray="502"
       stroke-width="80"
       mask="url(#g-3)"
       xlink:href="#a"
       id="use70"
       x="0"
       y="0"
       width="100%"
       height="100%"
       style="fill:none;fill-rule:evenodd"
       transform="matrix(0.96646329,0,0,0.96646329,321.00104,52.975701)" />
    <path
       id="ellipse68"
       style="color:#000000;font-style:normal;font-variant:normal;font-weight:normal;font-stretch:normal;font-size:medium;line-height:normal;font-family:sans-serif;font-variant-ligatures:normal;font-variant-position:normal;font-variant-caps:normal;font-variant-numeric:normal;font-variant-alternates:normal;font-variant-east-asian:normal;font-feature-settings:normal;font-variation-settings:normal;text-indent:0;text-align:start;text-decoration:none;text-decoration-line:none;text-decoration-style:solid;text-decoration-color:#000000;letter-spacing:normal;word-spacing:normal;text-transform:none;writing-mode:lr-tb;direction:ltr;text-orientation:mixed;dominant-baseline:auto;baseline-shift:baseline;text-anchor:start;white-space:normal;shape-padding:0;shape-margin:0;inline-size:0;clip-rule:nonzero;display:inline;overflow:visible;visibility:visible;isolation:auto;mix-blend-mode:normal;color-interpolation:sRGB;color-interpolation-filters:linearRGB;solid-color:#000000;solid-opacity:1;vector-effect:none;fill:#ffffff;fill-opacity:1;fill-rule:evenodd;stroke:none;stroke-width:0.966463;stroke-linecap:butt;stroke-linejoin:miter;stroke-miterlimit:4;stroke-dasharray:none;stroke-dashoffset:0;stroke-opacity:1;color-rendering:auto;image-rendering:auto;shape-rendering:auto;text-rendering:auto;enable-background:accumulate;stop-color:#000000;opacity:0.52445652"
       d="m 477.33772,124.37547 -38.50154,3.4598 c 0.0859,1.0459 0.14322,2.26762 0.1488,3.33672 l 38.65886,0.12592 c -9.7e-4,-2.31397 -0.10511,-4.65754 -0.30612,-6.92244 z"
       sodipodi:nodetypes="ccccc" />
    <use
       stroke="#242d52"
       stroke-dasharray="340"
       stroke-width="80"
       mask="url(#h-1)"
       xlink:href="#b"
       id="use72"
       x="0"
       y="0"
       width="100%"
       height="100%"
       style="fill:none;fill-rule:evenodd"
       transform="matrix(0.96646329,0,0,0.96646329,321.00104,52.975701)" />
    <g
       id="g1271"
       transform="matrix(0.96646329,0,0,0.96646329,-17.083431,-11.529309)">
      <use
         fill="#ffffff"
         xlink:href="#j"
         id="use80"
         x="0"
         y="0"
         width="100%"
         height="100%"
         style="opacity:0.3;fill-rule:evenodd"
         transform="translate(164.12999,280.27736)" />
      <g
         transform="translate(180.33799,420.73736)"
         id="g86"
         style="fill:none;fill-rule:evenodd">
        <rect
           width="106.026"
           height="78.333"
           fill="#f3603c"
           rx="4"
           id="rect82"
           x="0"
           y="0" />
        <path
           fill="#ffffff"
           fill-rule="nonzero"
           d="m 23.044,59.413 v -3.907 h 3.897 v -1.78 h -3.897 v -3.908 h -1.781 v 3.907 h -3.908 v 1.78 h 3.908 v 3.908 h 1.78 z m 12.264,2.038 V 47.345 H 33.15 l -3.433,2.997 v 2.374 l 3.314,-2.977 V 61.45 h 2.276 z m 6.437,0.198 c 0.382,0 0.71,-0.135 0.984,-0.406 0.274,-0.27 0.41,-0.597 0.41,-0.98 0,-0.382 -0.136,-0.71 -0.41,-0.983 a 1.343,1.343 0 0 0 -0.984,-0.41 c -0.376,0 -0.702,0.136 -0.98,0.41 a 1.335,1.335 0 0 0 -0.415,0.984 c 0,0.376 0.139,0.7 0.416,0.974 0.277,0.274 0.603,0.41 0.979,0.41 z m 8.584,-0.01 c 1.45,0 2.623,-0.444 3.517,-1.33 0.893,-0.888 1.34,-2.053 1.34,-3.497 0,-1.438 -0.438,-2.544 -1.316,-3.32 -0.877,-0.774 -2.199,-1.161 -3.966,-1.161 H 48.36 l 0.307,-2.918 h 5.876 V 47.355 H 46.68 l -0.732,6.914 h 3.63 c 2.21,0 3.314,0.874 3.314,2.622 0,0.791 -0.232,1.43 -0.697,1.914 -0.465,0.485 -1.103,0.727 -1.915,0.727 -0.705,0 -1.307,-0.205 -1.805,-0.613 -0.498,-0.41 -0.747,-1.023 -0.747,-1.84 0,-0.165 0.023,-0.403 0.07,-0.712 l -2.286,0.138 c -0.033,0.284 -0.05,0.521 -0.05,0.712 0,0.917 0.228,1.716 0.683,2.399 a 4.204,4.204 0 0 0 1.771,1.523 c 0.726,0.333 1.53,0.5 2.414,0.5 z m 9.207,-8.29 a 2.96,2.96 0 0 0 2.186,-0.91 c 0.6,-0.613 0.9,-1.348 0.9,-2.205 0,-0.851 -0.3,-1.58 -0.9,-2.187 a 2.96,2.96 0 0 0 -2.186,-0.91 c -0.85,0 -1.58,0.304 -2.186,0.91 a 2.981,2.981 0 0 0 -0.91,2.187 c 0,0.863 0.302,1.599 0.905,2.205 0.603,0.607 1.334,0.91 2.191,0.91 z m 1.088,8.112 7.46,-14.136 h -1.98 l -7.438,14.136 z m -1.088,-9.684 c -0.422,0 -0.785,-0.15 -1.088,-0.45 a 1.48,1.48 0 0 1 -0.455,-1.093 c 0,-0.43 0.152,-0.79 0.455,-1.084 a 1.51,1.51 0 0 1 1.088,-0.44 c 0.429,0 0.792,0.149 1.088,0.445 0.297,0.297 0.445,0.656 0.445,1.079 0,0.428 -0.146,0.793 -0.44,1.093 -0.293,0.3 -0.658,0.45 -1.093,0.45 z m 7.785,9.842 c 0.851,0 1.575,-0.303 2.172,-0.91 a 3.006,3.006 0 0 0 0.895,-2.186 c 0,-0.857 -0.3,-1.588 -0.9,-2.191 a 2.945,2.945 0 0 0 -2.167,-0.905 c -0.857,0 -1.589,0.301 -2.196,0.905 a 2.976,2.976 0 0 0 -0.91,2.191 c 0,0.857 0.302,1.588 0.905,2.191 0.604,0.603 1.338,0.905 2.201,0.905 z m 0,-1.563 c -0.435,0 -0.8,-0.15 -1.098,-0.45 a 1.485,1.485 0 0 1 -0.445,-1.083 c 0,-0.435 0.149,-0.801 0.445,-1.098 a 1.492,1.492 0 0 1 1.098,-0.445 c 0.416,0 0.777,0.151 1.084,0.455 0.306,0.303 0.46,0.666 0.46,1.088 0,0.422 -0.152,0.783 -0.455,1.083 -0.304,0.3 -0.666,0.45 -1.089,0.45 z"
           id="path84" />
      </g>
      <g
         transform="translate(301.89599,420.73736)"
         id="g92"
         style="fill:none;fill-rule:evenodd">
        <rect
           width="106.026"
           height="78.333"
           fill="#fafafa"
           rx="4"
           id="rect88"
           x="0"
           y="0"
           style="opacity:0.7" />
        <path
           fill="#1e272e"
           fill-rule="nonzero"
           d="m 22.104,61.639 c 0.936,0 1.777,-0.168 2.522,-0.505 a 4.186,4.186 0 0 0 1.776,-1.503 c 0.439,-0.66 0.658,-1.421 0.658,-2.285 0,-0.85 -0.218,-1.593 -0.653,-2.226 a 4.118,4.118 0 0 0 -1.77,-1.444 c 0.527,-0.31 0.942,-0.714 1.246,-1.212 a 3.14,3.14 0 0 0 0.455,-1.667 c 0,-1.068 -0.4,-1.943 -1.202,-2.626 -0.801,-0.682 -1.812,-1.024 -3.032,-1.024 -1.24,0 -2.262,0.34 -3.067,1.02 -0.804,0.678 -1.207,1.555 -1.207,2.63 0,0.614 0.155,1.17 0.465,1.667 0.31,0.498 0.736,0.902 1.276,1.212 -0.758,0.323 -1.353,0.801 -1.785,1.434 -0.432,0.633 -0.648,1.379 -0.648,2.236 0,0.864 0.22,1.625 0.658,2.285 a 4.147,4.147 0 0 0 1.78,1.498 c 0.749,0.34 1.591,0.51 2.528,0.51 z m 0,-8.665 c -0.607,0 -1.118,-0.197 -1.533,-0.589 a 1.926,1.926 0 0 1 -0.624,-1.459 c 0,-0.567 0.208,-1.044 0.624,-1.43 0.415,-0.385 0.926,-0.578 1.533,-0.578 0.6,0 1.108,0.193 1.523,0.579 0.416,0.385 0.624,0.862 0.624,1.429 0,0.574 -0.21,1.058 -0.629,1.454 a 2.131,2.131 0 0 1 -1.518,0.594 z m 0,6.607 c -0.772,0 -1.411,-0.227 -1.92,-0.682 -0.507,-0.455 -0.761,-1.062 -0.761,-1.82 0,-0.745 0.254,-1.342 0.762,-1.79 0.508,-0.45 1.147,-0.673 1.919,-0.673 0.758,0 1.391,0.224 1.9,0.672 0.507,0.449 0.761,1.046 0.761,1.79 0,0.753 -0.254,1.358 -0.762,1.816 -0.508,0.458 -1.14,0.687 -1.9,0.687 z M 33.18,61.64 c 0.936,0 1.777,-0.168 2.522,-0.505 a 4.186,4.186 0 0 0 1.776,-1.503 c 0.439,-0.66 0.658,-1.421 0.658,-2.285 0,-0.85 -0.218,-1.593 -0.653,-2.226 a 4.118,4.118 0 0 0 -1.77,-1.444 c 0.527,-0.31 0.942,-0.714 1.246,-1.212 a 3.14,3.14 0 0 0 0.455,-1.667 c 0,-1.068 -0.4,-1.943 -1.202,-2.626 -0.801,-0.682 -1.812,-1.024 -3.032,-1.024 -1.24,0 -2.262,0.34 -3.067,1.02 -0.804,0.678 -1.207,1.555 -1.207,2.63 0,0.614 0.155,1.17 0.465,1.667 0.31,0.498 0.736,0.902 1.276,1.212 -0.758,0.323 -1.353,0.801 -1.785,1.434 -0.432,0.633 -0.648,1.379 -0.648,2.236 0,0.864 0.22,1.625 0.658,2.285 a 4.147,4.147 0 0 0 1.78,1.498 c 0.749,0.34 1.591,0.51 2.528,0.51 z m 0,-8.665 c -0.607,0 -1.118,-0.197 -1.534,-0.589 a 1.926,1.926 0 0 1 -0.623,-1.459 c 0,-0.567 0.208,-1.044 0.623,-1.43 0.416,-0.385 0.927,-0.578 1.534,-0.578 0.6,0 1.108,0.193 1.523,0.579 0.416,0.385 0.623,0.862 0.623,1.429 0,0.574 -0.209,1.058 -0.628,1.454 a 2.131,2.131 0 0 1 -1.518,0.594 z m 0,6.607 c -0.772,0 -1.412,-0.227 -1.92,-0.682 -0.507,-0.455 -0.761,-1.062 -0.761,-1.82 0,-0.745 0.254,-1.342 0.762,-1.79 0.507,-0.45 1.147,-0.673 1.919,-0.673 0.758,0 1.391,0.224 1.9,0.672 0.507,0.449 0.76,1.046 0.76,1.79 0,0.753 -0.253,1.358 -0.76,1.816 -0.509,0.458 -1.142,0.687 -1.9,0.687 z m 8.435,2.068 c 0.383,0 0.711,-0.135 0.985,-0.406 0.273,-0.27 0.41,-0.597 0.41,-0.98 0,-0.382 -0.137,-0.71 -0.41,-0.983 a 1.343,1.343 0 0 0 -0.985,-0.41 c -0.375,0 -0.702,0.136 -0.979,0.41 a 1.335,1.335 0 0 0 -0.415,0.984 c 0,0.376 0.138,0.7 0.415,0.974 0.277,0.274 0.604,0.41 0.98,0.41 z m 13.313,-0.198 v -2.058 h -6.51 l 4.146,-4.293 c 0.666,-0.692 1.154,-1.342 1.464,-1.948 0.31,-0.607 0.465,-1.27 0.465,-1.989 0,-1.253 -0.419,-2.238 -1.257,-2.957 -0.837,-0.72 -1.915,-1.079 -3.234,-1.079 -1.405,0 -2.52,0.393 -3.344,1.178 -0.824,0.784 -1.237,1.909 -1.237,3.373 v 0.791 l 2.266,0.218 v -1.039 c 0,-0.917 0.207,-1.584 0.623,-2.003 0.415,-0.419 0.983,-0.628 1.701,-0.628 0.686,0 1.23,0.19 1.633,0.569 0.402,0.379 0.603,0.908 0.603,1.587 0,0.877 -0.471,1.8 -1.414,2.77 l -5.64,5.787 v 1.721 z m 9.702,0 v -2.76 h 1.939 v -2.048 h -1.94 V 47.346 H 61.16 l -5.431,9.289 v 2.057 h 6.628 v 2.76 h 2.275 z m -2.275,-4.808 h -4.412 l 4.412,-7.834 z m 8.129,-3.294 a 2.96,2.96 0 0 0 2.186,-0.91 c 0.6,-0.613 0.9,-1.348 0.9,-2.205 0,-0.851 -0.3,-1.58 -0.9,-2.187 a 2.96,2.96 0 0 0 -2.186,-0.91 c -0.851,0 -1.58,0.304 -2.187,0.91 a 2.981,2.981 0 0 0 -0.91,2.187 c 0,0.863 0.302,1.599 0.905,2.205 0.604,0.607 1.334,0.91 2.192,0.91 z m 1.088,8.112 7.459,-14.136 h -1.979 l -7.439,14.136 z m -1.088,-9.684 c -0.422,0 -0.785,-0.15 -1.089,-0.45 A 1.48,1.48 0 0 1 68.94,50.235 c 0,-0.43 0.152,-0.79 0.455,-1.084 a 1.51,1.51 0 0 1 1.089,-0.44 c 0.428,0 0.791,0.149 1.088,0.445 0.297,0.297 0.445,0.656 0.445,1.079 0,0.428 -0.147,0.793 -0.44,1.093 -0.294,0.3 -0.658,0.45 -1.093,0.45 z m 7.785,9.842 c 0.85,0 1.574,-0.303 2.171,-0.91 a 3.006,3.006 0 0 0 0.896,-2.186 c 0,-0.857 -0.3,-1.588 -0.9,-2.191 a 2.945,2.945 0 0 0 -2.167,-0.905 c -0.857,0 -1.59,0.301 -2.196,0.905 a 2.976,2.976 0 0 0 -0.91,2.191 c 0,0.857 0.301,1.588 0.905,2.191 0.603,0.603 1.337,0.905 2.2,0.905 z m 0,-1.563 c -0.435,0 -0.801,-0.15 -1.098,-0.45 a 1.485,1.485 0 0 1 -0.445,-1.083 c 0,-0.435 0.148,-0.801 0.445,-1.098 a 1.492,1.492 0 0 1 1.098,-0.445 c 0.415,0 0.776,0.151 1.083,0.455 0.307,0.303 0.46,0.666 0.46,1.088 0,0.422 -0.152,0.783 -0.455,1.083 -0.303,0.3 -0.666,0.45 -1.088,0.45 z"
           id="path90" />
      </g>
      <g
         transform="translate(180.33799,296.48436)"
         id="g98"
         style="fill:none;fill-rule:evenodd">
        <rect
           width="227.584"
           height="108.046"
           fill="#fafafa"
           rx="4"
           id="rect94"
           x="0"
           y="0"
           style="opacity:0.7" />
        <path
           fill="#343a40"
           fill-rule="nonzero"
           d="m 28.786,84.812 c 1.998,0 3.791,-0.359 5.381,-1.076 1.59,-0.732 2.853,-1.801 3.788,-3.208 0.936,-1.407 1.404,-3.032 1.404,-4.875 0,-1.815 -0.465,-3.397 -1.393,-4.748 -0.929,-1.35 -2.188,-2.377 -3.778,-3.08 1.126,-0.662 2.012,-1.524 2.66,-2.586 0.647,-1.062 0.97,-2.247 0.97,-3.556 0,-2.279 -0.855,-4.146 -2.564,-5.602 -1.71,-1.457 -3.865,-2.185 -6.468,-2.185 -2.645,0 -4.826,0.725 -6.542,2.174 -1.717,1.449 -2.575,3.32 -2.575,5.613 0,1.309 0.33,2.494 0.992,3.556 0.661,1.062 1.568,1.924 2.722,2.585 -1.618,0.69 -2.888,1.71 -3.81,3.06 -0.92,1.35 -1.381,2.94 -1.381,4.77 0,1.842 0.467,3.467 1.403,4.874 0.936,1.407 2.202,2.473 3.799,3.197 1.597,0.725 3.394,1.087 5.392,1.087 z m 0,-18.486 c -1.295,0 -2.385,-0.419 -3.271,-1.256 -0.887,-0.837 -1.33,-1.874 -1.33,-3.112 0,-1.21 0.443,-2.227 1.33,-3.05 0.886,-0.823 1.976,-1.234 3.27,-1.234 1.281,0 2.364,0.411 3.25,1.234 0.887,0.823 1.33,1.84 1.33,3.05 0,1.224 -0.446,2.258 -1.34,3.102 -0.893,0.844 -1.973,1.266 -3.24,1.266 z m 0,14.097 c -1.646,0 -3.011,-0.486 -4.094,-1.457 -1.084,-0.97 -1.625,-2.265 -1.625,-3.882 0,-1.59 0.541,-2.863 1.625,-3.82 1.083,-0.957 2.448,-1.435 4.094,-1.435 1.618,0 2.968,0.478 4.052,1.435 1.083,0.957 1.625,2.23 1.625,3.82 0,1.603 -0.542,2.894 -1.625,3.872 -1.084,0.978 -2.434,1.467 -4.052,1.467 z m 21.737,3.988 9.729,-12.873 c 1.772,-2.391 2.659,-4.818 2.659,-7.28 0,-1.97 -0.479,-3.746 -1.435,-5.329 a 9.904,9.904 0 0 0 -3.894,-3.682 c -1.64,-0.872 -3.458,-1.308 -5.455,-1.308 -1.956,0 -3.753,0.432 -5.392,1.297 -1.64,0.866 -2.948,2.104 -3.926,3.714 -0.978,1.611 -1.46,3.423 -1.445,5.434 0.014,1.97 0.482,3.718 1.403,5.244 0.922,1.527 2.107,2.684 3.556,3.472 a 9.656,9.656 0 0 0 4.685,1.182 c 0.661,0 1.294,-0.064 1.9,-0.19 l -8.02,10.319 z m 1.73,-13.76 c -1.8,0 -3.274,-0.565 -4.421,-1.698 -1.147,-1.132 -1.727,-2.62 -1.741,-4.463 -0.014,-1.815 0.563,-3.289 1.73,-4.421 1.168,-1.133 2.645,-1.699 4.432,-1.699 1.815,0 3.278,0.549 4.39,1.646 1.111,1.098 1.667,2.575 1.667,4.432 0,1.758 -0.566,3.232 -1.699,4.42 -1.132,1.19 -2.585,1.784 -4.358,1.784 z m 17.664,14.182 c 0.816,0 1.516,-0.288 2.1,-0.865 a 2.83,2.83 0 0 0 0.876,-2.09 c 0,-0.815 -0.292,-1.515 -0.876,-2.1 a 2.864,2.864 0 0 0 -2.1,-0.875 c -0.802,0 -1.498,0.292 -2.09,0.876 -0.59,0.584 -0.885,1.284 -0.885,2.1 0,0.801 0.295,1.494 0.886,2.078 0.59,0.584 1.287,0.876 2.09,0.876 z m 14.224,-0.422 14.16,-26.23 V 54.318 H 77.389 v 4.369 H 92.837 L 78.612,84.41 h 5.53 z m 34.378,0 v -5.888 h 4.137 v -4.368 h -4.137 V 54.318 h -7.407 L 99.526,74.134 v 4.39 h 14.14 v 5.887 z m -4.853,-10.256 h -9.413 l 9.413,-16.713 z m 17.094,-7.027 c 1.829,0 3.383,-0.647 4.664,-1.942 1.28,-1.308 1.92,-2.877 1.92,-4.706 0,-1.814 -0.64,-3.369 -1.92,-4.663 -1.28,-1.295 -2.835,-1.942 -4.664,-1.942 -1.815,0 -3.37,0.647 -4.664,1.942 -1.295,1.294 -1.942,2.849 -1.942,4.663 0,1.843 0.644,3.412 1.931,4.706 1.288,1.295 2.846,1.942 4.675,1.942 z m 2.321,17.304 15.913,-30.156 h -4.221 l -15.87,30.156 z m -2.321,-20.66 c -0.9,0 -1.675,-0.32 -2.322,-0.96 a 3.157,3.157 0 0 1 -0.97,-2.332 c 0,-0.914 0.323,-1.684 0.97,-2.31 a 3.222,3.222 0 0 1 2.322,-0.94 c 0.914,0 1.688,0.317 2.321,0.95 0.633,0.633 0.95,1.4 0.95,2.3 0,0.915 -0.313,1.692 -0.94,2.332 -0.625,0.64 -1.403,0.96 -2.331,0.96 z m 16.609,20.998 c 1.814,0 3.359,-0.647 4.632,-1.942 1.273,-1.294 1.91,-2.849 1.91,-4.663 0,-1.83 -0.64,-3.387 -1.92,-4.675 -1.281,-1.287 -2.822,-1.93 -4.622,-1.93 -1.83,0 -3.391,0.643 -4.686,1.93 -1.294,1.288 -1.941,2.846 -1.941,4.675 0,1.828 0.644,3.386 1.93,4.674 1.288,1.287 2.853,1.93 4.697,1.93 z m 0,-3.335 c -0.93,0 -1.71,-0.32 -2.343,-0.96 a 3.168,3.168 0 0 1 -0.95,-2.31 c 0,-0.929 0.317,-1.71 0.95,-2.343 0.633,-0.633 1.414,-0.95 2.343,-0.95 0.886,0 1.656,0.324 2.31,0.971 0.655,0.647 0.982,1.421 0.982,2.322 0,0.9 -0.324,1.67 -0.971,2.31 -0.647,0.64 -1.421,0.96 -2.321,0.96 z"
           id="path96" />
      </g>
    </g>
  </g>
</svg>
